<?xml version="1.0"?>
<svg xmlns="http://www.w3.org/2000/svg" xmlns:xlink="http://www.w3.org/1999/xlink" version="1.1" id="Layer_1" x="0px" y="0px" viewBox="0 0 454.359 454.359" style="enable-background:new 0 0 454.359 454.359;" xml:space="preserve" width="512px" height="512px" class=""><g><g>
	<path d="M152.099,127.099c70.732-61.107,170.241-75.953,255.372-38.713C365.86,34.64,300.719,0.029,227.487,0.029   c-35.391,0-68.893,8.084-98.764,22.503l0.007,7.957C128.758,64.584,137.034,97.624,152.099,127.099z" data-original="#000000" class="active-path" data-old_color="#4652b0" fill="#4652b0"/>
	<path d="M167.878,153.198c15.879,22.48,36.143,41.96,59.959,57.002c31.955-16.912,67.249-26.476,103.188-27.977l12.645-3.497   l0.918,3.321c38.228,0.567,75.942,10.202,109.735,27.976c-2.183-28.696-9.695-55.901-21.541-80.635l-2.84,4.898l-12.977-7.524   C336.695,80.217,236.022,91.422,167.878,153.198z" data-original="#000000" class="active-path" data-old_color="#4652b0" fill="#4652b0"/>
	<path d="M321.669,213.064c-27.41,2.512-54.411,10.323-79.347,23.428c-1.333,36.127-10.696,71.472-27.366,103.344l-3.292,12.695   l-3.347-0.868c-19.613,32.835-46.824,60.683-79.13,81.063c24.727,11.867,51.929,19.397,80.622,21.603l-2.796-4.864l13.005-7.476   C300.46,395.747,341.092,302.964,321.669,213.064z" data-original="#000000" class="active-path" data-old_color="#4652b0" fill="#4652b0"/>
	<path d="M447.511,240.506c-29.54-17.022-62.291-26.352-95.348-28.043c17.546,91.807-19.357,185.404-94.18,240.505   c105.727-14.166,188.46-100.938,196.376-208.516L447.511,240.506z" data-original="#000000" class="active-path" data-old_color="#4652b0" fill="#4652b0"/>
	<path d="M45.496,113.813c-0.174,92.79,59.867,174.373,147.438,202.499c11.528-24.992,18.267-52.281,19.386-80.427   c-30.623-19.218-56.554-45-75.823-75.375l-9.352-9.203l2.418-2.457c-18.622-33.389-29.135-70.866-30.639-109.018   c-23.108,15.86-43.137,35.875-59.016,58.97l5.615,0.01L45.496,113.813z" data-original="#000000" class="active-path" data-old_color="#4652b0" fill="#4652b0"/>
	<path d="M178.222,343.026C89.905,312.314,27.279,233.514,16.997,141.125C6.051,167.765,0,196.935,0,227.522   c0,78.128,39.393,147.05,99.394,188.009l6.845-3.96C135.752,394.498,160.228,370.811,178.222,343.026z" data-original="#000000" class="active-path" data-old_color="#4652b0" fill="#4652b0"/>
</g></g> </svg>
