<?xml version="1.0"?>
<svg xmlns="http://www.w3.org/2000/svg" xmlns:xlink="http://www.w3.org/1999/xlink" version="1.1" id="Capa_1" x="0px" y="0px" viewBox="0 0 512 512" style="enable-background:new 0 0 512 512;" xml:space="preserve" width="512px" height="512px" class=""><g><g>
	<g>
		<path d="M469.333,304.232V85.333c0-23.531-19.146-42.667-42.667-42.667h-53.333c-5.896,0-10.667,4.771-10.667,10.667v53.333    c0,11.76-9.563,21.333-21.333,21.333C329.563,128,320,118.427,320,106.667c0-8.917,5.729-16.948,14.25-19.979    c4.25-1.521,7.083-5.542,7.083-10.052V10.667C341.333,4.771,336.563,0,330.667,0C324.771,0,320,4.771,320,10.667v32H160    c-5.896,0-10.667,4.771-10.667,10.667v53.333c0,11.76-9.563,21.333-21.333,21.333s-21.333-9.573-21.333-21.333    c0-8.917,5.729-16.948,14.25-19.979c4.25-1.521,7.083-5.542,7.083-10.052V10.667C128,4.771,123.229,0,117.333,0    c-5.896,0-10.667,4.771-10.667,10.667v32h-64C19.146,42.667,0,61.802,0,85.333v341.333c0,23.531,19.146,42.667,42.667,42.667    H304.23C325.772,495.376,358.316,512,394.667,512C459.354,512,512,459.365,512,394.667    C512,358.313,495.374,325.77,469.333,304.232z M277.333,394.667c0,11.104,1.654,21.811,4.549,32H42.667v-256h384v111.216    c-10.189-2.897-20.896-4.549-32-4.549C329.979,277.333,277.333,329.969,277.333,394.667z M434.208,434.208    c-2.083,2.083-4.813,3.125-7.542,3.125s-5.458-1.042-7.542-3.125l-32-32c-2-2-3.125-4.708-3.125-7.542v-64    c0-5.896,4.771-10.667,10.667-10.667s10.667,4.771,10.667,10.667v59.583l28.875,28.875    C438.375,423.292,438.375,430.042,434.208,434.208z" data-original="#000000" class="active-path" data-old_color="#4652b0" fill="#4652b0"/>
	</g>
</g></g> </svg>
