<?xml version="1.0"?>
<svg xmlns="http://www.w3.org/2000/svg" xmlns:xlink="http://www.w3.org/1999/xlink" version="1.1" id="Capa_1" x="0px" y="0px" viewBox="0 0 512 512" style="enable-background:new 0 0 512 512;" xml:space="preserve" width="512px" height="512px"><g><g>
	<g>
		<polygon points="336.346,420.564 281.136,412.713 256.673,364.344 232.21,412.713 177,420.564 216.976,458.606 207.601,512     256.673,486.805 305.745,512 296.37,458.606   " data-original="#000000" class="active-path" data-old_color="#4652b0" fill="#4652b0"/>
	</g>
</g><g>
	<g>
		<polygon points="512,420.564 456.79,412.713 432.327,364.344 407.864,412.713 352.654,420.564 392.63,458.606 383.255,512     432.327,486.805 481.399,512 472.024,458.606   " data-original="#000000" class="active-path" data-old_color="#4652b0" fill="#4652b0"/>
	</g>
</g><g>
	<g>
		<polygon points="159.346,420.564 104.136,412.713 79.673,364.344 55.21,412.713 0,420.564 39.976,458.606 30.601,512     79.673,486.805 128.745,512 119.37,458.606   " data-original="#000000" class="active-path" data-old_color="#4652b0" fill="#4652b0"/>
	</g>
</g><g>
	<g>
		<path d="M256.673,0c-33.091,0-60,26.909-60,60s26.909,60,60,60s60-26.909,60-60S289.764,0,256.673,0z" data-original="#000000" class="active-path" data-old_color="#4652b0" fill="#4652b0"/>
	</g>
</g><g>
	<g>
		<path d="M257,120c-66.167,0-120,53.833-120,120v60h240v-60C377,173.833,323.167,120,257,120z" data-original="#000000" class="active-path" data-old_color="#4652b0" fill="#4652b0"/>
	</g>
</g></g> </svg>
