<?xml version="1.0"?>
<svg xmlns="http://www.w3.org/2000/svg" height="512px" viewBox="0 0 512 512" width="512px"><g><path d="m405.039062 364.925781c42.429688-29.152343 50.222657-85.882812 22.132813-124.285156l-7.980469-12.558594-138.0625 63.742188-9.257812 30.074219c15.335937 42.824218 59.3125 68.195312 105.945312 55.632812l39.5625 82.085938-54.460937 25.144531 12.5625 27.238281 136.15625-62.855469-12.5625-27.242187-54.457031 25.140625zm0 0" data-original="#000000" class="active-path" data-old_color="#4652b0" fill="#4652b0"/><path d="m240.945312 0h29.992188v91.980469h-29.992188zm0 0" data-original="#000000" class="active-path" data-old_color="#4652b0" fill="#4652b0"/><path d="m308.960938 120.160156-21.207032-21.207031 63.632813-63.632813 21.203125 21.207032zm0 0" data-original="#000000" class="active-path" data-old_color="#4652b0" fill="#4652b0"/><path d="m202.925781 120.15625-63.632812-63.632812 21.207031-21.203126 63.632812 63.632813zm0 0" data-original="#000000" class="active-path" data-old_color="#4652b0" fill="#4652b0"/><path d="m402.953125 202.539062-32.457031-51.070312-78.789063 36.367188 18.773438 8.664062-17.492188 56.808594zm0 0" data-original="#000000" class="active-path" data-old_color="#4652b0" fill="#4652b0"/><path d="m256.292969 270.578125 17.808593-57.835937-132.742187-61.273438-32.441406 51.074219zm0 0" data-original="#000000" class="active-path" data-old_color="#4652b0" fill="#4652b0"/><path d="m12.566406 421.785156-12.566406 27.242188 136.15625 62.855468 12.566406-27.238281-54.464844-25.144531 39.78125-81.96875c50.828126 13.691406 98.195313-18.652344 108.96875-63.8125l4.378907-14.210938-154.695313-71.414062-7.46875 11.757812c-28.726562 39.359376-20.992187 95.820313 21.59375 125.074219l-39.792968 82zm0 0" data-original="#000000" class="active-path" data-old_color="#4652b0" fill="#4652b0"/></g> </svg>
